<svg width="345" height="97" viewBox="0 0 345 97" fill="none" xmlns="http://www.w3.org/2000/svg">
<path d="M108.312 35V11.2344H101.281V1.15625H119.328L126.734 15.2188L134.094 1.15625H145.109V35H134.094V20.9375L127.016 35H126.406L119.328 20.9375V35H108.312ZM169.508 24.9219V18.0781H179.797V35H165.242C161.68 35 158.453 34.3516 155.562 33.0547C152.688 31.7422 150.422 29.7812 148.766 27.1719C147.109 24.5625 146.281 21.3672 146.281 17.5859C146.281 14.9297 146.773 12.5625 147.758 10.4844C148.758 8.39062 150.133 6.65625 151.883 5.28125C153.648 3.89062 155.43 2.78125 157.227 1.95312C159.023 1.10938 161.672 0.59375 165.172 0.40625C168.797 0.59375 171.562 1.03125 173.469 1.71875C175.375 2.40625 177.297 3.65625 179.234 5.46875L172.578 12.875C171.453 11.9375 170.453 11.2656 169.578 10.8594C168.703 10.4531 167.266 10.1875 165.266 10.0625C163.328 10.3125 161.906 10.7344 161 11.3281C160.094 11.9219 159.297 12.6875 158.609 13.625C157.922 14.5625 157.484 16 157.297 17.9375C157.484 19.875 157.922 21.2344 158.609 22.0156C159.297 22.7969 160.156 23.4375 161.188 23.9375C162.219 24.4375 163.328 24.75 164.516 24.875C165.703 25 167.367 25.0156 169.508 24.9219ZM208.578 1.15625V11.2344H197.844V35H186.828V11.2344H176.094V1.15625H208.578ZM206.281 35V11.2344H199.25V1.15625H217.297V24.9219H235.625V35H206.281ZM11.2812 78.7031C11.4062 80.5781 11.8125 81.9844 12.5 82.9219C13.1875 83.8594 14.0078 84.6016 14.9609 85.1484C15.9141 85.6953 17.3594 86.0938 19.2969 86.3438C21.2969 86.2188 22.7344 85.9531 23.6094 85.5469C24.4844 85.1406 25.4844 84.4688 26.6094 83.5312L33.2656 90.9375C31.3281 92.75 29.4062 94 27.5 94.6875C25.5938 95.375 22.8281 95.8125 19.2031 96C15.7031 95.8125 13.0547 95.3047 11.2578 94.4766C9.46094 93.6328 7.67969 92.5234 5.91406 91.1484C4.16406 89.7578 2.78906 88.0234 1.78906 85.9453C0.804688 83.8516 0.3125 81.4297 0.3125 78.6797C0.3125 75.9609 0.804688 73.5625 1.78906 71.4844C2.78906 69.3906 4.16406 67.6562 5.91406 66.2812C7.67969 64.8906 9.46094 63.7812 11.2578 62.9531C13.0547 62.1094 15.7031 61.5938 19.2031 61.4062C22.8281 61.5938 25.5938 62.0312 27.5 62.7188C29.4062 63.4062 31.3281 64.6562 33.2656 66.4688L26.6094 73.875C25.4844 72.9375 24.4844 72.2656 23.6094 71.8594C22.7344 71.4531 21.2969 71.1875 19.2969 71.0625C17.3594 71.3125 15.9141 71.7109 14.9609 72.2578C14.0078 72.8047 13.1875 73.5469 12.5 74.4844C11.8125 75.4219 11.4062 76.8281 11.2812 78.7031ZM31.9531 96L43.0859 62.1562H59.8906L71.2109 96H58.4141L56.2812 89.9062H46.2266L44.0938 96H31.9531ZM51.5234 69.6562L46.6719 83.0625H56L51.5234 69.6562ZM70.7656 96V62.1562H81.7812V85.9219H100.109V96H70.7656ZM124.297 85.9219H134.891V96H119.891C116.219 96 112.898 95.3516 109.93 94.0547C106.961 92.7422 104.617 90.7812 102.898 88.1719C101.195 85.5625 100.344 82.3672 100.344 78.5859C100.344 75.9297 100.852 73.5625 101.867 71.4844C102.898 69.3906 104.32 67.6562 106.133 66.2812C107.945 64.8906 110.023 63.8594 112.367 63.1875C114.727 62.5 117.234 62.1562 119.891 62.1562H129.172H134.891V72.2344H124.297C121.922 72.2344 120.164 72.3047 119.023 72.4453C117.883 72.5859 116.867 72.8203 115.977 73.1484C115.086 73.4766 114.297 74.0469 113.609 74.8594C112.922 75.6719 112.523 77.1094 112.414 79.1719C112.492 81.1719 112.891 82.6016 113.609 83.4609C114.328 84.3203 115.203 84.8906 116.234 85.1719C117.266 85.4531 118.328 85.6484 119.422 85.7578C120.516 85.8672 122.141 85.9219 124.297 85.9219ZM146.141 62.1562V82.1719C146.047 84.4531 146.484 86.0391 147.453 86.9297C148.422 87.8203 149.938 88.2969 152 88.3594C153.656 88.3281 155.039 87.8438 156.148 86.9062C157.258 85.9688 157.781 84.3906 157.719 82.1719V62.1562H168.734V82.0078C168.688 84.8203 168.219 87.0703 167.328 88.7578C166.453 90.4297 165.336 91.8281 163.977 92.9531C162.633 94.0781 160.938 94.9531 158.891 95.5781C156.859 96.2031 154.594 96.5469 152.094 96.6094C150.016 96.5625 147.898 96.2812 145.742 95.7656C143.602 95.2344 141.727 94.4062 140.117 93.2812C138.523 92.1562 137.289 90.7109 136.414 88.9453C135.555 87.1797 135.125 84.875 135.125 82.0312V62.1562H146.141ZM170.375 96V62.1562H181.391V85.9219H199.719V96H170.375ZM197.844 96L208.977 62.1562H225.781L237.102 96H224.305L222.172 89.9062H212.117L209.984 96H197.844ZM217.414 69.6562L212.562 83.0625H221.891L217.414 69.6562ZM267.5 62.1562V72.2344H256.766V96H245.75V72.2344H235.016V62.1562H267.5ZM306.359 79.2656C306.359 82.9688 305.586 86.125 304.039 88.7344C302.492 91.3438 300.25 93.3047 297.312 94.6172C294.391 95.9297 290.898 96.5859 286.836 96.5859C282.773 96.5859 279.281 95.9297 276.359 94.6172C273.453 93.2891 271.25 91.3359 269.75 88.7578C268.25 86.1641 267.5 83 267.5 79.2656C267.5 76.4375 267.93 73.9531 268.789 71.8125C269.648 69.6562 270.906 67.8438 272.562 66.375C274.219 64.9062 276.25 63.7969 278.656 63.0469C281.062 62.2812 283.789 61.8984 286.836 61.8984C290.883 61.8984 294.375 62.5703 297.312 63.9141C300.25 65.2422 302.492 67.2109 304.039 69.8203C305.586 72.4141 306.359 75.5625 306.359 79.2656ZM279.523 79.3594C279.523 81.5312 280.008 83.4219 280.977 85.0312C281.961 86.6406 283.891 87.4453 286.766 87.4453C288.984 87.4453 290.641 87.0234 291.734 86.1797C292.844 85.3359 293.531 84.375 293.797 83.2969C294.078 82.2031 294.266 80.8906 294.359 79.3594C294.266 77.1875 293.742 75.2969 292.789 73.6875C291.836 72.0625 289.828 71.25 286.766 71.25C281.938 71.25 279.523 73.9531 279.523 79.3594ZM308 96V62.1562H330.031C332.75 62.4062 334.984 63.125 336.734 64.3125C338.484 65.5 339.766 67.0938 340.578 69.0938C341.203 72.0938 341.234 74.4062 340.672 76.0312C340.109 77.6562 339.125 79.0156 337.719 80.1094C336.312 81.2031 334.297 82.0625 331.672 82.6875L334.203 85.9219H344.328V96H330.969L320.234 84.8203V96H308ZM320.234 70.5938V76.8281H328.766C329.219 76.8281 329.711 76.6641 330.242 76.3359C330.773 75.9922 331.055 75.1406 331.086 73.7812C331.008 72.4844 330.688 71.6328 330.125 71.2266C329.578 70.8047 329.117 70.5938 328.742 70.5938H320.234Z" fill="#F9AC34"/>
</svg>
